<svg xmlns="http://www.w3.org/2000/svg" width="512" height="512" viewBox="0 0 512 512">
  <g id="color-picker" transform="translate(-3909 2006)">
    <rect id="Rectangle_1" data-name="Rectangle 1" width="512" height="512" transform="translate(3909 -2006)" fill="none"/>
    <g id="Path_3" data-name="Path 3" transform="translate(4013 -1929)" fill="#bbffe8">
      <path d="M 172.5000305175781 386.3327331542969 L 16.33368682861328 340.6396789550781 L -7.691242218017578 172.4638214111328 L 48.98509979248047 94.31910705566406 L 133.1376800537109 -6.148849487304688 L 172.5000305175781 0.4234221577644348 L 172.5000305175781 386.3327331542969 Z" stroke="none"/>
      <path d="M 133.3373413085938 -5.608551025390625 L 49.37962341308594 94.62677001953125 L -7.16766357421875 172.5934600830078 L 16.78315734863281 340.250244140625 L 171.9999847412109 385.6654968261719 L 171.9999847412109 0.846893310546875 L 133.3373413085938 -5.608551025390625 M 132.9379730224609 -6.6890869140625 L 172.9999847412109 0 L 172.9999847412109 387 L 15.88427734375 341.0291442871094 L -8.214874267578125 172.3341064453125 L 48.590576171875 94.01144409179688 L 132.9379730224609 -6.6890869140625 Z" stroke="none" fill="#707070"/>
    </g>
    <path id="Icon_material-invert-colors" data-name="Icon material-invert-colors" d="M336.974,140.544,199.835,3.405,62.7,140.544c-75.6,75.6-75.6,198.439,0,274.035a194.2,194.2,0,0,0,274.277,0c75.6-75.6,75.6-198.439,0-274.035ZM199.835,423.059A145.286,145.286,0,0,1,97.1,174.949L199.835,71.974Z" transform="translate(3965.165 -1987.34)" fill="#6c6565"/>
  </g>
</svg>
